<?xml version="1.0" encoding="UTF-8" standalone="no"?>
<!-- Created with Inkscape (http://www.inkscape.org/) -->

<svg
   xmlns:dc="http://purl.org/dc/elements/1.1/"
   xmlns:cc="http://creativecommons.org/ns#"
   xmlns:rdf="http://www.w3.org/1999/02/22-rdf-syntax-ns#"
   xmlns:svg="http://www.w3.org/2000/svg"
   xmlns="http://www.w3.org/2000/svg"
   xmlns:sodipodi="http://sodipodi.sourceforge.net/DTD/sodipodi-0.dtd"
   xmlns:inkscape="http://www.inkscape.org/namespaces/inkscape"
   width="494.92188"
   height="354.02805"
   id="svg2"
   version="1.1"
   inkscape:version="0.48+devel r10221"
   sodipodi:docname="moire1.svg">
  <defs
     id="defs4">
    <clipPath
       id="clipPath80"
       clipPathUnits="userSpaceOnUse">
      <path
         id="path82"
         d="M 0,0 612,0 612,792 0,792 0,0 z"
         inkscape:connector-curvature="0" />
    </clipPath>
  </defs>
  <sodipodi:namedview
     id="base"
     pagecolor="#ffffff"
     bordercolor="#666666"
     borderopacity="1.0"
     inkscape:pageopacity="0.0"
     inkscape:pageshadow="2"
     inkscape:zoom="0.49497475"
     inkscape:cx="-29.469437"
     inkscape:cy="-43.419524"
     inkscape:document-units="px"
     inkscape:current-layer="g76"
     showgrid="false"
     inkscape:window-width="1276"
     inkscape:window-height="756"
     inkscape:window-x="0"
     inkscape:window-y="0"
     inkscape:window-maximized="1"
     fit-margin-top="0"
     fit-margin-left="0"
     fit-margin-right="0"
     fit-margin-bottom="0" />
  <metadata
     id="metadata7">
    <rdf:RDF>
      <cc:Work
         rdf:about="">
        <dc:format>image/svg+xml</dc:format>
        <dc:type
           rdf:resource="http://purl.org/dc/dcmitype/StillImage" />
        <dc:title></dc:title>
      </cc:Work>
    </rdf:RDF>
  </metadata>
  <g
     inkscape:label="Layer 1"
     inkscape:groupmode="layer"
     id="layer1"
     transform="translate(-29.271314,-26.663844)">
    <g
       id="g74"
       transform="matrix(1.25,0,0,-1.25,-6.8062861,1176.5419)" />
    <g
       id="g76"
       transform="matrix(1.25,0,0,-1.25,-6.8062861,1176.5419)">
      <g
         transform="translate(-71.63792,87.055)"
         id="g724">
        <path
           id="path726"
           style="fill:none;stroke:#000000;stroke-width:0.61199999;stroke-linecap:butt;stroke-linejoin:miter;stroke-miterlimit:10;stroke-opacity:1;stroke-dasharray:none"
           d="M 220.989,554.907 104.78,550.849 m 116.08,7.728 -116.209,-4.058 m 116.082,7.728 -116.209,-4.058 m 116.081,7.728 -116.209,-4.058 m 116.08,7.727 -116.209,-4.058 m 116.082,7.728 -116.211,-4.058 m 116.082,7.728 -116.209,-4.058 m 116.08,7.728 -116.209,-4.058 m 116.081,7.728 -116.209,-4.059 m 116.082,7.728 -116.209,-4.058 m 116.08,7.728 -116.209,-4.058 m 116.082,7.728 -116.209,-4.058 m 116.081,7.728 -116.211,-4.059 m 116.082,7.728 -116.209,-4.058 m 116.08,7.728 -116.209,-4.058 m 116.082,7.728 -116.209,-4.058 m 116.08,7.728 -116.208,-4.058 m 116.08,7.727 -116.209,-4.058 m 116.082,7.728 -116.209,-4.058 m 116.08,7.728 -116.209,-4.058 m 116.08,7.728 -116.209,-4.058 m 116.082,7.727 -116.21,-4.058 m 116.082,7.728 -116.209,-4.058 m 116.08,7.728 -116.209,-4.058 m 116.082,7.728 -116.209,-4.058 m 116.08,7.728 -116.209,-4.059 m 116.081,7.728 -116.209,-4.058 m 116.08,7.728 -116.209,-4.058 m 116.082,7.728 -116.209,-4.058 m 116.08,7.728 -116.209,-4.059 M 217.144,665 100.935,660.942 m 116.082,7.728 -116.209,-4.058 m 116.08,7.728 -116.209,-4.058 m 116.08,7.728 -116.209,-4.059"
           inkscape:connector-curvature="0" />
      </g>
      <g
         transform="translate(-71.63792,87.055)"
         id="g728">
        <path
           id="path730"
           style="fill:none;stroke:#000000;stroke-width:0.61199999;stroke-linecap:butt;stroke-linejoin:miter;stroke-miterlimit:10;stroke-opacity:1;stroke-dasharray:none"
           d="m 216.718,550.849 -116.209,4.058 m 116.336,-0.388 -116.209,4.058 m 116.338,-0.388 -116.209,4.058 m 116.336,-0.388 -116.209,4.058 m 116.338,-0.389 -116.209,4.058 m 116.337,-0.388 -116.209,4.058 m 116.338,-0.388 -116.211,4.058 m 116.338,-0.388 -116.209,4.058 m 116.338,-0.389 -116.209,4.059 m 116.337,-0.389 -116.209,4.058 m 116.336,-0.388 -116.209,4.058 m 116.338,-0.388 -116.209,4.058 m 116.338,-0.389 -116.211,4.059 m 116.339,-0.389 -116.209,4.058 m 116.336,-0.388 -116.209,4.058 m 116.338,-0.388 -116.209,4.058 m 116.336,-0.388 -116.209,4.058 m 116.338,-0.389 -116.209,4.058 m 116.337,-0.388 -116.209,4.058 m 116.338,-0.388 -116.211,4.058 m 116.338,-0.388 -116.209,4.058 m 116.338,-0.389 -116.209,4.058 m 116.337,-0.388 -116.209,4.058 m 116.336,-0.388 -116.209,4.058 m 116.338,-0.388 -116.209,4.058 m 116.338,-0.389 -116.211,4.059 m 116.339,-0.389 -116.21,4.058 m 116.337,-0.388 -116.209,4.058 m 116.338,-0.388 -116.209,4.058 m 116.336,-0.389 -116.209,4.059 M 220.562,660.942 104.353,665 m 116.337,-0.388 -116.209,4.058 m 116.338,-0.388 -116.211,4.058 m 116.338,-0.389 -116.209,4.059"
           inkscape:connector-curvature="0" />
      </g>
      <g
         transform="translate(-71.63792,87.055)"
         id="g732">
        <path
           id="path734"
           style="fill:none;stroke:#000000;stroke-width:1.65199995;stroke-linecap:butt;stroke-linejoin:miter;stroke-miterlimit:10;stroke-opacity:1;stroke-dasharray:none"
           d="M 358.688,554.907 242.48,550.849 m 116.08,7.728 -116.209,-4.058 m 116.082,7.728 -116.209,-4.058 m 116.08,7.728 -116.209,-4.058 m 116.082,7.727 -116.209,-4.058 m 116.081,7.728 -116.209,-4.058 m 116.08,7.728 -116.209,-4.058 m 116.08,7.728 -116.209,-4.058 m 116.082,7.728 -116.209,-4.059 m 116.08,7.728 -116.208,-4.058 m 116.08,7.728 -116.209,-4.058 m 116.082,7.728 -116.209,-4.058 m 116.08,7.728 -116.209,-4.059 m 116.08,7.728 -116.209,-4.058 m 116.081,7.728 -116.209,-4.058 m 116.082,7.728 -116.209,-4.058 m 116.08,7.728 -116.209,-4.058 m 116.082,7.727 -116.209,-4.058 m 116.08,7.728 -116.208,-4.058 m 116.08,7.728 -116.209,-4.058 m 116.08,7.728 -116.209,-4.058 m 116.082,7.727 -116.209,-4.058 m 116.08,7.728 -116.209,-4.058 m 116.081,7.728 -116.209,-4.058 m 116.082,7.728 -116.209,-4.058 m 116.08,7.728 -116.209,-4.059 m 116.082,7.728 -116.211,-4.058 m 116.082,7.728 -116.21,-4.058 m 116.082,7.728 -116.209,-4.058 m 116.08,7.728 -116.209,-4.059 M 354.845,665 238.636,660.942 m 116.08,7.728 -116.209,-4.058 m 116.081,7.728 -116.209,-4.058 m 116.08,7.728 -116.209,-4.059"
           inkscape:connector-curvature="0" />
      </g>
      <g
         transform="translate(-71.63792,87.055)"
         id="g736">
        <path
           id="path738"
           style="fill:none;stroke:#000000;stroke-width:1.65199995;stroke-linecap:butt;stroke-linejoin:miter;stroke-miterlimit:10;stroke-opacity:1;stroke-dasharray:none"
           d="m 354.418,550.849 -116.209,4.058 m 116.336,-0.388 -116.209,4.058 m 116.338,-0.388 -116.209,4.058 m 116.337,-0.388 -116.209,4.058 m 116.336,-0.389 -116.209,4.058 m 116.338,-0.388 -116.209,4.058 m 116.338,-0.388 -116.211,4.058 m 116.339,-0.388 -116.209,4.058 m 116.336,-0.389 -116.209,4.059 m 116.338,-0.389 -116.209,4.058 m 116.336,-0.388 -116.209,4.058 m 116.338,-0.388 -116.209,4.058 m 116.337,-0.389 -116.209,4.059 m 116.338,-0.389 -116.209,4.058 m 116.336,-0.388 -116.209,4.058 m 116.338,-0.388 -116.209,4.058 m 116.337,-0.388 -116.209,4.058 m 116.336,-0.389 -116.209,4.058 m 116.338,-0.388 -116.209,4.058 m 116.338,-0.388 -116.211,4.058 m 116.339,-0.388 -116.209,4.058 m 116.336,-0.389 -116.209,4.058 m 116.338,-0.388 -116.209,4.058 m 116.336,-0.388 -116.209,4.058 m 116.338,-0.388 -116.209,4.058 m 116.337,-0.389 -116.209,4.059 m 116.338,-0.389 -116.209,4.058 m 116.336,-0.388 -116.209,4.058 m 116.338,-0.388 -116.209,4.058 m 116.337,-0.389 -116.209,4.059 M 358.261,660.942 242.052,665 m 116.338,-0.388 -116.209,4.058 m 116.338,-0.388 -116.211,4.058 m 116.339,-0.389 -116.209,4.059"
           inkscape:connector-curvature="0" />
      </g>
      <g
         transform="translate(-71.63792,87.055)"
         id="g740">
        <path
           id="path742"
           style="fill:none;stroke:#000000;stroke-width:2.44799995;stroke-linecap:butt;stroke-linejoin:miter;stroke-miterlimit:10;stroke-opacity:1;stroke-dasharray:none"
           d="m 496.388,554.907 -116.209,-4.058 m 116.082,7.728 -116.209,-4.058 m 116.08,7.728 -116.208,-4.058 m 116.08,7.728 -116.209,-4.058 m 116.082,7.727 -116.209,-4.058 m 116.08,7.728 -116.209,-4.058 m 116.082,7.728 -116.211,-4.058 m 116.081,7.728 -116.209,-4.058 m 116.082,7.728 -116.209,-4.059 m 116.08,7.728 -116.209,-4.058 m 116.082,7.728 -116.209,-4.058 m 116.081,7.728 -116.209,-4.058 m 116.08,7.728 -116.209,-4.059 m 116.08,7.728 -116.209,-4.058 m 116.082,7.728 -116.209,-4.058 m 116.08,7.728 -116.209,-4.058 m 116.081,7.728 -116.209,-4.058 m 116.082,7.727 -116.209,-4.058 m 116.08,7.728 -116.209,-4.058 m 116.082,7.728 -116.211,-4.058 m 116.082,7.728 -116.21,-4.058 m 116.082,7.727 -116.209,-4.058 m 116.08,7.728 -116.209,-4.058 m 116.082,7.728 -116.209,-4.058 m 116.08,7.728 -116.208,-4.058 m 116.08,7.728 -116.209,-4.059 m 116.082,7.728 -116.211,-4.058 m 116.082,7.728 -116.209,-4.058 m 116.08,7.728 -116.209,-4.058 m 116.082,7.728 -116.21,-4.059 M 492.545,665 376.336,660.942 m 116.08,7.728 -116.209,-4.058 m 116.082,7.728 -116.211,-4.058 m 116.082,7.728 -116.209,-4.059"
           inkscape:connector-curvature="0" />
      </g>
      <g
         transform="translate(-71.63792,87.055)"
         id="g744">
        <path
           id="path746"
           style="fill:none;stroke:#000000;stroke-width:2.44799995;stroke-linecap:butt;stroke-linejoin:miter;stroke-miterlimit:10;stroke-opacity:1;stroke-dasharray:none"
           d="m 492.118,550.849 -116.209,4.058 m 116.337,-0.388 -116.209,4.058 m 116.336,-0.388 -116.209,4.058 m 116.338,-0.388 -116.209,4.058 m 116.336,-0.389 -116.209,4.058 m 116.337,-0.388 -116.208,4.058 m 116.337,-0.388 -116.209,4.058 m 116.338,-0.388 -116.209,4.058 m 116.336,-0.389 -116.209,4.059 m 116.338,-0.389 -116.209,4.058 m 116.337,-0.388 -116.209,4.058 m 116.336,-0.388 -116.209,4.058 m 116.338,-0.389 -116.209,4.059 m 116.338,-0.389 -116.209,4.058 m 116.337,-0.388 -116.209,4.058 m 116.336,-0.388 -116.209,4.058 m 116.338,-0.388 -116.209,4.058 m 116.336,-0.389 -116.209,4.058 m 116.338,-0.388 -116.209,4.058 m 116.337,-0.388 -116.209,4.058 m 116.338,-0.388 -116.209,4.058 m 116.336,-0.389 -116.209,4.058 m 116.338,-0.388 -116.209,4.058 m 116.337,-0.388 -116.209,4.058 m 116.336,-0.388 -116.209,4.058 m 116.338,-0.389 -116.209,4.059 m 116.338,-0.389 -116.211,4.058 m 116.339,-0.388 -116.209,4.058 m 116.336,-0.388 -116.209,4.058 m 116.338,-0.389 -116.209,4.059 M 495.961,660.942 379.752,665 m 116.338,-0.388 -116.209,4.058 m 116.337,-0.388 -116.209,4.058 m 116.338,-0.389 -116.209,4.059"
           inkscape:connector-curvature="0" />
      </g>
      <g
         id="g1757"
         transform="matrix(0.99918253,0.04042613,-0.04042613,0.99918253,-67.395385,227.49217)">
        <path
           inkscape:connector-curvature="0"
           d="m 354.418,550.849 -116.209,4.058 m 116.336,-0.388 -116.209,4.058 m 116.338,-0.388 -116.209,4.058 m 116.337,-0.388 -116.209,4.058 m 116.336,-0.389 -116.209,4.058 m 116.338,-0.388 -116.209,4.058 m 116.338,-0.388 -116.211,4.058 m 116.339,-0.388 -116.209,4.058 m 116.336,-0.389 -116.209,4.059 m 116.338,-0.389 -116.209,4.058 m 116.336,-0.388 -116.209,4.058 m 116.338,-0.388 -116.209,4.058 m 116.337,-0.389 -116.209,4.059 m 116.338,-0.389 -116.209,4.058 m 116.336,-0.388 -116.209,4.058 m 116.338,-0.388 -116.209,4.058 m 116.337,-0.388 -116.209,4.058 m 116.336,-0.389 -116.209,4.058 m 116.338,-0.388 -116.209,4.058 m 116.338,-0.388 -116.211,4.058 m 116.339,-0.388 -116.209,4.058 m 116.336,-0.389 -116.209,4.058 m 116.338,-0.388 -116.209,4.058 m 116.336,-0.388 -116.209,4.058 m 116.338,-0.388 -116.209,4.058 m 116.337,-0.389 -116.209,4.059 m 116.338,-0.389 -116.209,4.058 m 116.336,-0.388 -116.209,4.058 m 116.338,-0.388 -116.209,4.058 m 116.337,-0.389 -116.209,4.059 M 358.261,660.942 242.052,665 m 116.338,-0.388 -116.209,4.058 m 116.338,-0.388 -116.211,4.058 m 116.339,-0.389 -116.209,4.059"
           style="fill:none;stroke:#000000;stroke-width:1.65199995;stroke-linecap:butt;stroke-linejoin:miter;stroke-miterlimit:10;stroke-opacity:1;stroke-dasharray:none"
           id="path1759" />
      </g>
      <g
         id="g1761"
         transform="matrix(0.98138542,-0.19204859,0.19204859,0.98138542,-165.83319,305.39431)">
        <path
           inkscape:connector-curvature="0"
           d="M 358.688,554.907 242.48,550.849 m 116.08,7.728 -116.209,-4.058 m 116.082,7.728 -116.209,-4.058 m 116.08,7.728 -116.209,-4.058 m 116.082,7.727 -116.209,-4.058 m 116.081,7.728 -116.209,-4.058 m 116.08,7.728 -116.209,-4.058 m 116.08,7.728 -116.209,-4.058 m 116.082,7.728 -116.209,-4.059 m 116.08,7.728 -116.208,-4.058 m 116.08,7.728 -116.209,-4.058 m 116.082,7.728 -116.209,-4.058 m 116.08,7.728 -116.209,-4.059 m 116.08,7.728 -116.209,-4.058 m 116.081,7.728 -116.209,-4.058 m 116.082,7.728 -116.209,-4.058 m 116.08,7.728 -116.209,-4.058 m 116.082,7.727 -116.209,-4.058 m 116.08,7.728 -116.208,-4.058 m 116.08,7.728 -116.209,-4.058 m 116.08,7.728 -116.209,-4.058 m 116.082,7.727 -116.209,-4.058 m 116.08,7.728 -116.209,-4.058 m 116.081,7.728 -116.209,-4.058 m 116.082,7.728 -116.209,-4.058 m 116.08,7.728 -116.209,-4.059 m 116.082,7.728 -116.211,-4.058 m 116.082,7.728 -116.21,-4.058 m 116.082,7.728 -116.209,-4.058 m 116.08,7.728 -116.209,-4.059 M 354.845,665 238.636,660.942 m 116.08,7.728 -116.209,-4.058 m 116.081,7.728 -116.209,-4.058 m 116.08,7.728 -116.209,-4.059"
           style="fill:none;stroke:#000000;stroke-width:1.65199995;stroke-linecap:butt;stroke-linejoin:miter;stroke-miterlimit:10;stroke-opacity:1;stroke-dasharray:none"
           id="path1763" />
      </g>
    </g>
  </g>
</svg>
